<svg width="562" height="124" viewBox="0 0 562 124" fill="none" xmlns="http://www.w3.org/2000/svg">
<path d="M228.029 4.62335C235.021 9.76868 241.709 15.2527 248.067 21.0953C251.201 23.9567 255.311 26.0407 257.276 30.0033C259.529 34.2873 260.821 38.5913 260.547 43.8353C260.512 44.3673 260.052 44.77 259.52 44.7353C254.304 44.054 250.28 41.9713 246.479 38.9567C242.949 36.2913 241.661 31.8687 239.429 28.258C237.155 24.63 234.985 20.914 232.92 17.1127C230.872 13.2953 228.805 9.49401 226.949 5.51934C226.625 4.87534 227.457 4.17801 228.029 4.62335Z" fill="#00AEEF"/>
<path d="M43.7308 24.0775H178.935C184.112 24.0775 188.875 20.8428 190.407 15.8975C192.968 7.63618 186.864 0.0588473 178.991 0.0588473H1.92679C0.650785 0.0588473 0.234787 1.77218 1.36812 2.35618L43.1721 23.9415C43.3455 24.0308 43.5361 24.0775 43.7308 24.0775Z" fill="#00AEEF"/>
<path d="M113.829 58.9134H212.961C219.391 58.9134 225.032 54.064 225.417 47.6454C225.836 40.676 220.309 34.8947 213.431 34.8947H71.8945C69.9825 34.8947 69.3586 37.4627 71.0586 38.34L108.301 57.5707C110.011 58.4534 111.905 58.9134 113.829 58.9134Z" fill="#00AEEF"/>
<path d="M334.469 4.62335C327.477 9.76868 320.789 15.2527 314.432 21.0953C311.297 23.9567 307.188 26.0407 305.223 30.0033C302.969 34.2873 301.677 38.5913 301.952 43.8353C301.987 44.3673 302.447 44.77 302.979 44.7353C308.195 44.054 312.219 41.9713 316.019 38.9567C319.549 36.2913 320.837 31.8687 323.069 28.258C325.344 24.63 327.513 20.914 329.579 17.1127C331.627 13.2953 333.693 9.49401 335.549 5.51934C335.873 4.87534 335.041 4.17801 334.469 4.62335Z" fill="#00AEEF"/>
<path d="M518.768 24.0775H383.564C378.387 24.0775 373.624 20.8428 372.092 15.8975C369.531 7.63618 375.635 0.0588473 383.508 0.0588473H560.572C561.848 0.0588473 562.264 1.77218 561.131 2.35618L519.327 23.9415C519.153 24.0308 518.963 24.0775 518.768 24.0775Z" fill="#00AEEF"/>
<path d="M448.67 58.9134H349.538C343.108 58.9134 337.467 54.064 337.082 47.6454C336.663 40.676 342.19 34.8947 349.068 34.8947H490.604C492.516 34.8947 493.14 37.4627 491.44 38.34L454.198 57.5707C452.488 58.4534 450.594 58.9134 448.67 58.9134Z" fill="#00AEEF"/>
<path d="M423.109 69.7298H308.673C308.658 69.7298 308.644 69.7351 308.633 69.7444L281.273 92.3591C281.258 92.3711 281.249 92.3884 281.249 92.4084C281.249 92.3884 281.241 92.3711 281.226 92.3591L253.866 69.7444C253.854 69.7351 253.84 69.7298 253.825 69.7298H139.389C137.47 69.7298 136.844 72.3084 138.549 73.1884L175.305 92.1671C177.317 93.2058 179.548 93.7484 181.812 93.7484H245.185C245.2 93.7484 245.214 93.7538 245.225 93.7631L281.144 123.452C281.186 123.487 281.249 123.456 281.249 123.403C281.249 123.456 281.313 123.487 281.354 123.452L317.273 93.7631C317.285 93.7538 317.3 93.7484 317.314 93.7484H380.686C382.952 93.7484 385.182 93.2058 387.194 92.1671L423.949 73.1884C425.656 72.3084 425.029 69.7298 423.109 69.7298Z" fill="#00AEEF"/>
</svg>
